{"asset":{"version":"2.0","generator":"Blockbench 4.10.3 glTF exporter"},"scenes":[{"nodes":[6],"name":"blockbench_export"}],"scene":0,"nodes":[{"translation":[0,0.1875,0],"name":"cylinder","mesh":0},{"name":"Button","children":[0]},{"name":"cylinder","mesh":1},{"name":"Base","children":[2]},{"translation":[0,0.1875,0],"name":"cylinder","mesh":2},{"name":"GreenButton","children":[4]},{"children":[1,3,5]}],"bufferViews":[{"buffer":0,"byteOffset":0,"byteLength":4320,"target":34962,"byteStride":12},{"buffer":0,"byteOffset":4320,"byteLength":4320,"target":34962,"byteStride":12},{"buffer":0,"byteOffset":8640,"byteLength":2880,"target":34962,"byteStride":8},{"buffer":0,"byteOffset":11520,"byteLength":1008,"target":34963},{"buffer":0,"byteOffset":12528,"byteLength":2880,"target":34962,"byteStride":12},{"buffer":0,"byteOffset":15408,"byteLength":2880,"target":34962,"byteStride":12},{"buffer":0,"byteOffset":18288,"byteLength":1920,"target":34962,"byteStride":8},{"buffer":0,"byteOffset":20208,"byteLength":576,"target":34963},{"buffer":0,"byteOffset":20784,"byteLength":4320,"target":34962,"byteStride":12},{"buffer":0,"byteOffset":25104,"byteLength":4320,"target":34962,"byteStride":12},{"buffer":0,"byteOffset":29424,"byteLength":2880,"target":34962,"byteStride":8},{"buffer":0,"byteOffset":32304,"byteLength":1008,"target":34963},{"buffer":0,"byteOffset":33312,"byteLength":8},{"buffer":0,"byteOffset":33320,"byteLength":24},{"buffer":0,"byteOffset":33344,"byteLength":32},{"buffer":0,"byteOffset":33376,"byteLength":96}],"buffers":[{"byteLength":33472,"uri":"data:application/octet-stream;base64,"}],"accessors":[{"bufferView":0,"componentType":5126,"count":360,"max":[0.3812499940395355,0.3812499940395355,0.38749998807907104],"min":[-0.3812499940395355,-0.0062500000931322575,-0.38749998807907104],"type":"VEC3"},{"bufferView":1,"componentType":5126,"count":360,"max":[1,1,1],"min":[-1,0,-1],"type":"VEC3"},{"bufferView":2,"componentType":5126,"count":360,"max":[0.790722131729126,0.7127828001976013],"min":[0,0.078125],"type":"VEC2"},{"bufferView":3,"componentType":5123,"count":504,"max":[359],"min":[0],"type":"SCALAR"},{"bufferView":4,"componentType":5126,"count":240,"max":[0.5,0.25,0.5],"min":[-0.5,0,-0.5],"type":"VEC3"},{"bufferView":5,"componentType":5126,"count":240,"max":[1,1,1],"min":[-1,-1,-1],"type":"VEC3"},{"bufferView":6,"componentType":5126,"count":240,"max":[0.774664044380188,0.734375],"min":[0,0],"type":"VEC2"},{"bufferView":7,"componentType":5123,"count":288,"max":[239],"min":[0],"type":"SCALAR"},{"bufferView":8,"componentType":5126,"count":360,"max":[0.375,0.375,0.375],"min":[-0.375,0,-0.375],"type":"VEC3"},{"bufferView":9,"componentType":5126,"count":360,"max":[1,1,1],"min":[-1,0,-1],"type":"VEC3"},{"bufferView":10,"componentType":5126,"count":360,"max":[0.790722131729126,0.7127828001976013],"min":[0.15625,0],"type":"VEC2"},{"bufferView":11,"componentType":5123,"count":504,"max":[359],"min":[0],"type":"SCALAR"},{"bufferView":12,"componentType":5126,"count":2,"max":[0.0416666679084301],"min":[0],"type":"SCALAR"},{"bufferView":13,"componentType":5126,"count":2,"max":[1,1,1],"min":[0,0,0],"type":"VEC3"},{"bufferView":14,"componentType":5126,"count":8,"max":[0.5],"min":[0],"type":"SCALAR"},{"bufferView":15,"componentType":5126,"count":8,"max":[0,0,0],"min":[0,-0.25,0],"type":"VEC3"}],"materials":[{"pbrMetallicRoughness":{"metallicFactor":0,"roughnessFactor":1,"baseColorTexture":{"index":0}},"alphaMode":"MASK","alphaCutoff":0.05,"doubleSided":true}],"textures":[{"sampler":0,"source":0,"name":"ButtonTexture.png"}],"samplers":[{"magFilter":9728,"minFilter":9728,"wrapS":33071,"wrapT":33071}],"images":[{"mimeType":"image/png","uri":"data:image/png;base64,"}],"meshes":[{"primitives":[{"mode":4,"attributes":{"POSITION":0,"NORMAL":1,"TEXCOORD_0":2},"indices":3,"material":0}]},{"primitives":[{"mode":4,"attributes":{"POSITION":4,"NORMAL":5,"TEXCOORD_0":6},"indices":7,"material":0}]},{"primitives":[{"mode":4,"attributes":{"POSITION":8,"NORMAL":9,"TEXCOORD_0":10},"indices":11,"material":0}]}],"animations":[{"name":"ButtonHit","samplers":[{"input":12,"output":13,"interpolation":"LINEAR"},{"input":14,"output":15,"interpolation":"LINEAR"}],"channels":[{"sampler":0,"target":{"node":1,"path":"scale"}},{"sampler":1,"target":{"node":5,"path":"translation"}}]}]}