{"asset":{"version":"2.0","generator":"Blockbench 4.10.3 glTF exporter"},"scenes":[{"nodes":[27],"name":"blockbench_export"}],"scene":0,"nodes":[{"name":"RemoteBody","mesh":0},{"translation":[-0.0625,0.1484375,-0.234375],"name":"cylinder","mesh":1},{"translation":[0,0.1484375,0.140625],"name":"cylinder","mesh":2},{"rotation":[0,0.7071067811865475,0,0.7071067811865476],"translation":[0.078125,0.15625,0.140625],"name":"cuboid","mesh":3},{"rotation":[0,0.7071067811865475,0,0.7071067811865476],"translation":[-0.078125,0.15625,0.140625],"name":"cuboid","mesh":4},{"translation":[0,0.15625,0.0625],"name":"cuboid","mesh":5},{"translation":[0.0625,0.15625,-0.078125],"name":"cuboid","mesh":6},{"translation":[-0.0625,0.15625,-0.078125],"name":"cuboid","mesh":7},{"translation":[0,0.15625,0.21875],"name":"cuboid","mesh":8},{"translation":[0,0.125,0.09375],"name":"Remote","children":[0,1,2,3,4,5,6,7,8]},{"rotation":[0.5792279594286261,0.40557978313701293,-0.5792279712505122,0.4055797922082648],"translation":[-0.203125,0.1875,0.0625],"name":"cuboid","mesh":9},{"rotation":[0.6830126918431784,0.1830126987237693,-0.6830127119412603,0.18301270506066897],"translation":[-0.04687500000000003,0.08118988160479124,-1.2187101328109406e-10],"name":"cuboid","mesh":10},{"translation":[-0.18749999999999997,0.23131011839520876,0.06250000012187101],"name":"thumb2","children":[11]},{"rotation":[-0.6660689279899006,0.7127151567220096,-0.18840957037181216,0.11353907845942368],"translation":[0.296875,0.15625,0.125],"name":"Thumb","children":[10,12]},{"rotation":[0.640856372321136,0.29883623469789433,-0.6408563917904413,0.29883624276234466],"translation":[-0.296875,0.28125,0.0625],"name":"cuboid","mesh":11},{"rotation":[0.5792279594286261,0.40557978313701293,-0.5792279712505122,0.4055797922082648],"translation":[-0.203125,0.1875,0.0625],"name":"cuboid","mesh":12},{"rotation":[-0.04842113630731283,-0.5534561205517234,0.07246735163233552,0.8283056194001948],"translation":[0.15625,0,0.0625],"name":"finger3","children":[14,15]},{"rotation":[0.6830126918431784,0.1830126987237693,-0.6830127119412603,0.18301270506066897],"translation":[-0.234375,0.3125,0.0625],"name":"cuboid","mesh":13},{"rotation":[0.5792279594286261,0.40557978313701293,-0.5792279712505122,0.4055797922082648],"translation":[-0.203125,0.1875,0.0625],"name":"cuboid","mesh":14},{"rotation":[0,-0.19509032201612825,0,0.9807852804032304],"translation":[0.03125,0,0.0625],"name":"finger2","children":[17,18]},{"rotation":[0.5792279594286261,0.40557978313701293,-0.5792279712505122,0.4055797922082648],"translation":[-0.203125,0.1875,0.0625],"name":"cuboid","mesh":15},{"rotation":[0.6644630175052357,0.24184475979676115,-0.6644630312721137,0.24184476549918876],"translation":[-0.265625,0.296875,0.0625],"name":"cuboid","mesh":16},{"rotation":[0,-0.40274668985873724,0,0.9153114791194471],"translation":[0.03125,0,0],"name":"finger1","children":[20,21]},{"rotation":[0,0,0.21643961393810288,0.9762960071199334],"translation":[0.1875,0.103125,0.1875],"name":"Palm2","mesh":17},{"translation":[0.046875,0.0625,0.1875],"name":"Palm1","mesh":18},{"name":"Palm","children":[23,24]},{"name":"Hand","children":[13,16,19,22,25]},{"children":[9,26]}],"bufferViews":[{"buffer":0,"byteOffset":0,"byteLength":288,"target":34962,"byteStride":12},{"buffer":0,"byteOffset":288,"byteLength":288,"target":34962,"byteStride":12},{"buffer":0,"byteOffset":576,"byteLength":192,"target":34962,"byteStride":8},{"buffer":0,"byteOffset":768,"byteLength":72,"target":34963},{"buffer":0,"byteOffset":840,"byteLength":672,"target":34962,"byteStride":12},{"buffer":0,"byteOffset":1512,"byteLength":672,"target":34962,"byteStride":12},{"buffer":0,"byteOffset":2184,"byteLength":448,"target":34962,"byteStride":8},{"buffer":0,"byteOffset":2632,"byteLength":144,"target":34963},{"buffer":0,"byteOffset":2776,"byteLength":672,"target":34962,"byteStride":12},{"buffer":0,"byteOffset":3448,"byteLength":672,"target":34962,"byteStride":12},{"buffer":0,"byteOffset":4120,"byteLength":448,"target":34962,"byteStride":8},{"buffer":0,"byteOffset":4568,"byteLength":144,"target":34963},{"buffer":0,"byteOffset":4712,"byteLength":240,"target":34962,"byteStride":12},{"buffer":0,"byteOffset":4952,"byteLength":240,"target":34962,"byteStride":12},{"buffer":0,"byteOffset":5192,"byteLength":160,"target":34962,"byteStride":8},{"buffer":0,"byteOffset":5352,"byteLength":60,"target":34963},{"buffer":0,"byteOffset":5412,"byteLength":240,"target":34962,"byteStride":12},{"buffer":0,"byteOffset":5652,"byteLength":240,"target":34962,"byteStride":12},{"buffer":0,"byteOffset":5892,"byteLength":160,"target":34962,"byteStride":8},{"buffer":0,"byteOffset":6052,"byteLength":60,"target":34963},{"buffer":0,"byteOffset":6112,"byteLength":240,"target":34962,"byteStride":12},{"buffer":0,"byteOffset":6352,"byteLength":240,"target":34962,"byteStride":12},{"buffer":0,"byteOffset":6592,"byteLength":160,"target":34962,"byteStride":8},{"buffer":0,"byteOffset":6752,"byteLength":60,"target":34963},{"buffer":0,"byteOffset":6812,"byteLength":240,"target":34962,"byteStride":12},{"buffer":0,"byteOffset":7052,"byteLength":240,"target":34962,"byteStride":12},{"buffer":0,"byteOffset":7292,"byteLength":160,"target":34962,"byteStride":8},{"buffer":0,"byteOffset":7452,"byteLength":60,"target":34963},{"buffer":0,"byteOffset":7512,"byteLength":240,"target":34962,"byteStride":12},{"buffer":0,"byteOffset":7752,"byteLength":240,"target":34962,"byteStride":12},{"buffer":0,"byteOffset":7992,"byteLength":160,"target":34962,"byteStride":8},{"buffer":0,"byteOffset":8152,"byteLength":60,"target":34963},{"buffer":0,"byteOffset":8212,"byteLength":240,"target":34962,"byteStride":12},{"buffer":0,"byteOffset":8452,"byteLength":240,"target":34962,"byteStride":12},{"buffer":0,"byteOffset":8692,"byteLength":160,"target":34962,"byteStride":8},{"buffer":0,"byteOffset":8852,"byteLength":60,"target":34963},{"buffer":0,"byteOffset":8912,"byteLength":288,"target":34962,"byteStride":12},{"buffer":0,"byteOffset":9200,"byteLength":288,"target":34962,"byteStride":12},{"buffer":0,"byteOffset":9488,"byteLength":192,"target":34962,"byteStride":8},{"buffer":0,"byteOffset":9680,"byteLength":72,"target":34963},{"buffer":0,"byteOffset":9752,"byteLength":288,"target":34962,"byteStride":12},{"buffer":0,"byteOffset":10040,"byteLength":288,"target":34962,"byteStride":12},{"buffer":0,"byteOffset":10328,"byteLength":192,"target":34962,"byteStride":8},{"buffer":0,"byteOffset":10520,"byteLength":72,"target":34963},{"buffer":0,"byteOffset":10592,"byteLength":288,"target":34962,"byteStride":12},{"buffer":0,"byteOffset":10880,"byteLength":288,"target":34962,"byteStride":12},{"buffer":0,"byteOffset":11168,"byteLength":192,"target":34962,"byteStride":8},{"buffer":0,"byteOffset":11360,"byteLength":72,"target":34963},{"buffer":0,"byteOffset":11432,"byteLength":288,"target":34962,"byteStride":12},{"buffer":0,"byteOffset":11720,"byteLength":288,"target":34962,"byteStride":12},{"buffer":0,"byteOffset":12008,"byteLength":192,"target":34962,"byteStride":8},{"buffer":0,"byteOffset":12200,"byteLength":72,"target":34963},{"buffer":0,"byteOffset":12272,"byteLength":288,"target":34962,"byteStride":12},{"buffer":0,"byteOffset":12560,"byteLength":288,"target":34962,"byteStride":12},{"buffer":0,"byteOffset":12848,"byteLength":192,"target":34962,"byteStride":8},{"buffer":0,"byteOffset":13040,"byteLength":72,"target":34963},{"buffer":0,"byteOffset":13112,"byteLength":288,"target":34962,"byteStride":12},{"buffer":0,"byteOffset":13400,"byteLength":288,"target":34962,"byteStride":12},{"buffer":0,"byteOffset":13688,"byteLength":192,"target":34962,"byteStride":8},{"buffer":0,"byteOffset":13880,"byteLength":72,"target":34963},{"buffer":0,"byteOffset":13952,"byteLength":288,"target":34962,"byteStride":12},{"buffer":0,"byteOffset":14240,"byteLength":288,"target":34962,"byteStride":12},{"buffer":0,"byteOffset":14528,"byteLength":192,"target":34962,"byteStride":8},{"buffer":0,"byteOffset":14720,"byteLength":72,"target":34963},{"buffer":0,"byteOffset":14792,"byteLength":288,"target":34962,"byteStride":12},{"buffer":0,"byteOffset":15080,"byteLength":288,"target":34962,"byteStride":12},{"buffer":0,"byteOffset":15368,"byteLength":192,"target":34962,"byteStride":8},{"buffer":0,"byteOffset":15560,"byteLength":72,"target":34963},{"buffer":0,"byteOffset":15632,"byteLength":288,"target":34962,"byteStride":12},{"buffer":0,"byteOffset":15920,"byteLength":288,"target":34962,"byteStride":12},{"buffer":0,"byteOffset":16208,"byteLength":192,"target":34962,"byteStride":8},{"buffer":0,"byteOffset":16400,"byteLength":72,"target":34963},{"buffer":0,"byteOffset":16472,"byteLength":288,"target":34962,"byteStride":12},{"buffer":0,"byteOffset":16760,"byteLength":288,"target":34962,"byteStride":12},{"buffer":0,"byteOffset":17048,"byteLength":192,"target":34962,"byteStride":8},{"buffer":0,"byteOffset":17240,"byteLength":72,"target":34963},{"buffer":0,"byteOffset":17312,"byteLength":12},{"buffer":0,"byteOffset":17324,"byteLength":48},{"buffer":0,"byteOffset":17372,"byteLength":12},{"buffer":0,"byteOffset":17384,"byteLength":36},{"buffer":0,"byteOffset":17420,"byteLength":12},{"buffer":0,"byteOffset":17432,"byteLength":48},{"buffer":0,"byteOffset":17480,"byteLength":12},{"buffer":0,"byteOffset":17492,"byteLength":48},{"buffer":0,"byteOffset":17540,"byteLength":12},{"buffer":0,"byteOffset":17552,"byteLength":48},{"buffer":0,"byteOffset":17600,"byteLength":12},{"buffer":0,"byteOffset":17612,"byteLength":48}],"buffers":[{"byteLength":17660,"uri":"data:application/octet-stream;base64,"}],"accessors":[{"bufferView":0,"componentType":5126,"count":24,"max":[0.125,0.15625,0.3125],"min":[-0.125,0.09375,-0.3125],"type":"VEC3"},{"bufferView":1,"componentType":5126,"count":24,"max":[1,1,1],"min":[-1,-1,-1],"type":"VEC3"},{"bufferView":2,"componentType":5126,"count":24,"max":[0.65625,0.53125],"min":[0,0],"type":"VEC2"},{"bufferView":3,"componentType":5123,"count":36,"max":[23],"min":[0],"type":"SCALAR"},{"bufferView":4,"componentType":5126,"count":56,"max":[0.03125,0.0234375,0.03125],"min":[-0.03125,0.0078125,-0.03125],"type":"VEC3"},{"bufferView":5,"componentType":5126,"count":56,"max":[1,1,1],"min":[-1,0,-1],"type":"VEC3"},{"bufferView":6,"componentType":5126,"count":56,"max":[0.84375,0.84375],"min":[0.25,0.25],"type":"VEC2"},{"bufferView":7,"componentType":5123,"count":72,"max":[55],"min":[0],"type":"SCALAR"},{"bufferView":8,"componentType":5126,"count":56,"max":[0.03125,0.0234375,0.03125],"min":[-0.03125,0.0078125,-0.03125],"type":"VEC3"},{"bufferView":9,"componentType":5126,"count":56,"max":[1,1,1],"min":[-1,0,-1],"type":"VEC3"},{"bufferView":10,"componentType":5126,"count":56,"max":[0.875,0.84375],"min":[0.5625,0],"type":"VEC2"},{"bufferView":11,"componentType":5123,"count":72,"max":[55],"min":[0],"type":"SCALAR"},{"bufferView":12,"componentType":5126,"count":20,"max":[0.0234375,0.015625,0.03125],"min":[-0.0234375,0,-0.03125],"type":"VEC3"},{"bufferView":13,"componentType":5126,"count":20,"max":[1,1,1],"min":[-1,0,-1],"type":"VEC3"},{"bufferView":14,"componentType":5126,"count":20,"max":[0.875,0.875],"min":[0.6875,0.0625],"type":"VEC2"},{"bufferView":15,"componentType":5123,"count":30,"max":[19],"min":[0],"type":"SCALAR"},{"bufferView":16,"componentType":5126,"count":20,"max":[0.0234375,0.015625,0.03125],"min":[-0.0234375,0,-0.03125],"type":"VEC3"},{"bufferView":17,"componentType":5126,"count":20,"max":[1,1,1],"min":[-1,0,-1],"type":"VEC3"},{"bufferView":18,"componentType":5126,"count":20,"max":[0.28125,0.90625],"min":[0,0.875],"type":"VEC2"},{"bufferView":19,"componentType":5123,"count":30,"max":[19],"min":[0],"type":"SCALAR"},{"bufferView":20,"componentType":5126,"count":20,"max":[0.0234375,0.015625,0.03125],"min":[-0.0234375,0,-0.03125],"type":"VEC3"},{"bufferView":21,"componentType":5126,"count":20,"max":[1,1,1],"min":[-1,0,-1],"type":"VEC3"},{"bufferView":22,"componentType":5126,"count":20,"max":[0.90625,0.90625],"min":[0.5,0.4375],"type":"VEC2"},{"bufferView":23,"componentType":5123,"count":30,"max":[19],"min":[0],"type":"SCALAR"},{"bufferView":24,"componentType":5126,"count":20,"max":[0.03125,0.015625,0.0546875],"min":[-0.03125,0,-0.0546875],"type":"VEC3"},{"bufferView":25,"componentType":5126,"count":20,"max":[1,1,1],"min":[-1,0,-1],"type":"VEC3"},{"bufferView":26,"componentType":5126,"count":20,"max":[0.90625,0.90625],"min":[0.1875,0.28125],"type":"VEC2"},{"bufferView":27,"componentType":5123,"count":30,"max":[19],"min":[0],"type":"SCALAR"},{"bufferView":28,"componentType":5126,"count":20,"max":[0.03125,0.015625,0.0546875],"min":[-0.03125,0,-0.0546875],"type":"VEC3"},{"bufferView":29,"componentType":5126,"count":20,"max":[1,1,1],"min":[-1,0,-1],"type":"VEC3"},{"bufferView":30,"componentType":5126,"count":20,"max":[0.90625,0.90625],"min":[0.375,0.46875],"type":"VEC2"},{"bufferView":31,"componentType":5123,"count":30,"max":[19],"min":[0],"type":"SCALAR"},{"bufferView":32,"componentType":5126,"count":20,"max":[0.0234375,0.015625,0.03125],"min":[-0.0234375,0,-0.03125],"type":"VEC3"},{"bufferView":33,"componentType":5126,"count":20,"max":[1,1,1],"min":[-1,0,-1],"type":"VEC3"},{"bufferView":34,"componentType":5126,"count":20,"max":[0.90625,0.90625],"min":[0.3125,0.25],"type":"VEC2"},{"bufferView":35,"componentType":5123,"count":30,"max":[19],"min":[0],"type":"SCALAR"},{"bufferView":36,"componentType":5126,"count":24,"max":[0.03125,0.15625,0.03125],"min":[-0.03125,0.03125,-0.03125],"type":"VEC3"},{"bufferView":37,"componentType":5126,"count":24,"max":[1,1,1],"min":[-1,-1,-1],"type":"VEC3"},{"bufferView":38,"componentType":5126,"count":24,"max":[0.8125,0.8125],"min":[0.625,0.28125],"type":"VEC2"},{"bufferView":39,"componentType":5123,"count":36,"max":[23],"min":[0],"type":"SCALAR"},{"bufferView":40,"componentType":5126,"count":24,"max":[0.03125,0.15625,0.03125],"min":[-0.03125,0.03125,-0.03125],"type":"VEC3"},{"bufferView":41,"componentType":5126,"count":24,"max":[1,1,1],"min":[-1,-1,-1],"type":"VEC3"},{"bufferView":42,"componentType":5126,"count":24,"max":[0.8125,0.71875],"min":[0.4375,0.125],"type":"VEC2"},{"bufferView":43,"componentType":5123,"count":36,"max":[23],"min":[0],"type":"SCALAR"},{"bufferView":44,"componentType":5126,"count":24,"max":[0.03125,0.15625,0.03125],"min":[-0.03125,0.03125,-0.03125],"type":"VEC3"},{"bufferView":45,"componentType":5126,"count":24,"max":[1,1,1],"min":[-1,-1,-1],"type":"VEC3"},{"bufferView":46,"componentType":5126,"count":24,"max":[0.75,0.84375],"min":[0,0],"type":"VEC2"},{"bufferView":47,"componentType":5123,"count":36,"max":[23],"min":[0],"type":"SCALAR"},{"bufferView":48,"componentType":5126,"count":24,"max":[0.03125,0.15625,0.03125],"min":[-0.03125,0.03125,-0.03125],"type":"VEC3"},{"bufferView":49,"componentType":5126,"count":24,"max":[1,1,1],"min":[-1,-1,-1],"type":"VEC3"},{"bufferView":50,"componentType":5126,"count":24,"max":[0.75,0.84375],"min":[0.125,0.09375],"type":"VEC2"},{"bufferView":51,"componentType":5123,"count":36,"max":[23],"min":[0],"type":"SCALAR"},{"bufferView":52,"componentType":5126,"count":24,"max":[0.03125,0.15625,0.03125],"min":[-0.03125,0.03125,-0.03125],"type":"VEC3"},{"bufferView":53,"componentType":5126,"count":24,"max":[1,1,1],"min":[-1,-1,-1],"type":"VEC3"},{"bufferView":54,"componentType":5126,"count":24,"max":[0.78125,0.78125],"min":[0.1875,0],"type":"VEC2"},{"bufferView":55,"componentType":5123,"count":36,"max":[23],"min":[0],"type":"SCALAR"},{"bufferView":56,"componentType":5126,"count":24,"max":[0.03125,0.15625,0.03125],"min":[-0.03125,0.03125,-0.03125],"type":"VEC3"},{"bufferView":57,"componentType":5126,"count":24,"max":[1,1,1],"min":[-1,-1,-1],"type":"VEC3"},{"bufferView":58,"componentType":5126,"count":24,"max":[0.8125,0.71875],"min":[0.25,0],"type":"VEC2"},{"bufferView":59,"componentType":5123,"count":36,"max":[23],"min":[0],"type":"SCALAR"},{"bufferView":60,"componentType":5126,"count":24,"max":[0.03125,0.15625,0.03125],"min":[-0.03125,0.03125,-0.03125],"type":"VEC3"},{"bufferView":61,"componentType":5126,"count":24,"max":[1,1,1],"min":[-1,-1,-1],"type":"VEC3"},{"bufferView":62,"componentType":5126,"count":24,"max":[0.78125,0.78125],"min":[0.3125,0.5625],"type":"VEC2"},{"bufferView":63,"componentType":5123,"count":36,"max":[23],"min":[0],"type":"SCALAR"},{"bufferView":64,"componentType":5126,"count":24,"max":[0.03125,0.15625,0.03125],"min":[-0.03125,0.03125,-0.03125],"type":"VEC3"},{"bufferView":65,"componentType":5126,"count":24,"max":[1,1,1],"min":[-1,-1,-1],"type":"VEC3"},{"bufferView":66,"componentType":5126,"count":24,"max":[0.78125,0.78125],"min":[0,0.5625],"type":"VEC2"},{"bufferView":67,"componentType":5123,"count":36,"max":[23],"min":[0],"type":"SCALAR"},{"bufferView":68,"componentType":5126,"count":24,"max":[0.0546875,0.1171875,0.1875],"min":[-0.0546875,0.0078125,-0.1875],"type":"VEC3"},{"bufferView":69,"componentType":5126,"count":24,"max":[1,1,1],"min":[-1,-1,-1],"type":"VEC3"},{"bufferView":70,"componentType":5126,"count":24,"max":[0.625,0.625],"min":[0.125,0],"type":"VEC2"},{"bufferView":71,"componentType":5123,"count":36,"max":[23],"min":[0],"type":"SCALAR"},{"bufferView":72,"componentType":5126,"count":24,"max":[0.0859375,0.125,0.1875],"min":[-0.0859375,0,-0.1875],"type":"VEC3"},{"bufferView":73,"componentType":5126,"count":24,"max":[1,1,1],"min":[-1,-1,-1],"type":"VEC3"},{"bufferView":74,"componentType":5126,"count":24,"max":[0.625,0.59375],"min":[0,0],"type":"VEC2"},{"bufferView":75,"componentType":5123,"count":36,"max":[23],"min":[0],"type":"SCALAR"},{"bufferView":76,"componentType":5126,"count":3,"max":[0.25],"min":[0],"type":"SCALAR"},{"bufferView":77,"componentType":5126,"count":3,"max":[-0.6660689115524292,0.7127151489257812,-0.18840956687927246,0.11353907734155655],"min":[-0.7390696406364441,0.6024172306060791,-0.29707249999046326,-0.05116095766425133],"type":"VEC4"},{"bufferView":78,"componentType":5126,"count":3,"max":[0.25],"min":[0],"type":"SCALAR"},{"bufferView":79,"componentType":5126,"count":3,"max":[0.296875,0.21875,0.125],"min":[0.203125,0.15625,0.125],"type":"VEC3"},{"bufferView":80,"componentType":5126,"count":3,"max":[0.25],"min":[0],"type":"SCALAR"},{"bufferView":81,"componentType":5126,"count":3,"max":[0,0,0.08715574443340302,1],"min":[0,0,0,0.9961947202682495],"type":"VEC4"},{"bufferView":82,"componentType":5126,"count":3,"max":[0.25],"min":[0],"type":"SCALAR"},{"bufferView":83,"componentType":5126,"count":3,"max":[0,0,0,1],"min":[0,0,-0.258819043636322,0.9659258127212524],"type":"VEC4"},{"bufferView":84,"componentType":5126,"count":3,"max":[0.25],"min":[0],"type":"SCALAR"},{"bufferView":85,"componentType":5126,"count":3,"max":[-0.6660689115524292,0.7127151489257812,-0.13367532193660736,0.16901443898677826],"min":[-0.7761453986167908,0.59259033203125,-0.18840956687927246,0.11353907734155655],"type":"VEC4"},{"bufferView":86,"componentType":5126,"count":3,"max":[0.25],"min":[0],"type":"SCALAR"},{"bufferView":87,"componentType":5126,"count":3,"max":[0,0,0,1],"min":[0,0,-0.3826834261417389,0.9238795042037964],"type":"VEC4"}],"materials":[{"pbrMetallicRoughness":{"metallicFactor":0,"roughnessFactor":1,"baseColorTexture":{"index":0}},"alphaMode":"MASK","alphaCutoff":0.05,"doubleSided":true}],"textures":[{"sampler":0,"source":0,"name":"ControllerArmTexture.png"}],"samplers":[{"magFilter":9728,"minFilter":9728,"wrapS":33071,"wrapT":33071}],"images":[{"mimeType":"image/png","uri":"data:image/png;base64,"}],"meshes":[{"primitives":[{"mode":4,"attributes":{"POSITION":0,"NORMAL":1,"TEXCOORD_0":2},"indices":3,"material":0}]},{"primitives":[{"mode":4,"attributes":{"POSITION":4,"NORMAL":5,"TEXCOORD_0":6},"indices":7,"material":0}]},{"primitives":[{"mode":4,"attributes":{"POSITION":8,"NORMAL":9,"TEXCOORD_0":10},"indices":11,"material":0}]},{"primitives":[{"mode":4,"attributes":{"POSITION":12,"NORMAL":13,"TEXCOORD_0":14},"indices":15,"material":0}]},{"primitives":[{"mode":4,"attributes":{"POSITION":16,"NORMAL":17,"TEXCOORD_0":18},"indices":19,"material":0}]},{"primitives":[{"mode":4,"attributes":{"POSITION":20,"NORMAL":21,"TEXCOORD_0":22},"indices":23,"material":0}]},{"primitives":[{"mode":4,"attributes":{"POSITION":24,"NORMAL":25,"TEXCOORD_0":26},"indices":27,"material":0}]},{"primitives":[{"mode":4,"attributes":{"POSITION":28,"NORMAL":29,"TEXCOORD_0":30},"indices":31,"material":0}]},{"primitives":[{"mode":4,"attributes":{"POSITION":32,"NORMAL":33,"TEXCOORD_0":34},"indices":35,"material":0}]},{"primitives":[{"mode":4,"attributes":{"POSITION":36,"NORMAL":37,"TEXCOORD_0":38},"indices":39,"material":0}]},{"primitives":[{"mode":4,"attributes":{"POSITION":40,"NORMAL":41,"TEXCOORD_0":42},"indices":43,"material":0}]},{"primitives":[{"mode":4,"attributes":{"POSITION":44,"NORMAL":45,"TEXCOORD_0":46},"indices":47,"material":0}]},{"primitives":[{"mode":4,"attributes":{"POSITION":48,"NORMAL":49,"TEXCOORD_0":50},"indices":51,"material":0}]},{"primitives":[{"mode":4,"attributes":{"POSITION":52,"NORMAL":53,"TEXCOORD_0":54},"indices":55,"material":0}]},{"primitives":[{"mode":4,"attributes":{"POSITION":56,"NORMAL":57,"TEXCOORD_0":58},"indices":59,"material":0}]},{"primitives":[{"mode":4,"attributes":{"POSITION":60,"NORMAL":61,"TEXCOORD_0":62},"indices":63,"material":0}]},{"primitives":[{"mode":4,"attributes":{"POSITION":64,"NORMAL":65,"TEXCOORD_0":66},"indices":67,"material":0}]},{"primitives":[{"mode":4,"attributes":{"POSITION":68,"NORMAL":69,"TEXCOORD_0":70},"indices":71,"material":0}]},{"primitives":[{"mode":4,"attributes":{"POSITION":72,"NORMAL":73,"TEXCOORD_0":74},"indices":75,"material":0}]}],"animations":[{"name":"PowerButtonPress","samplers":[{"input":76,"output":77,"interpolation":"LINEAR"},{"input":78,"output":79,"interpolation":"LINEAR"},{"input":80,"output":81,"interpolation":"LINEAR"},{"input":82,"output":83,"interpolation":"LINEAR"}],"channels":[{"sampler":0,"target":{"node":13,"path":"rotation"}},{"sampler":1,"target":{"node":13,"path":"translation"}},{"sampler":2,"target":{"node":25,"path":"rotation"}},{"sampler":3,"target":{"node":12,"path":"rotation"}}]},{"name":"ChannelButtonAnimation","samplers":[{"input":84,"output":85,"interpolation":"LINEAR"},{"input":86,"output":87,"interpolation":"LINEAR"}],"channels":[{"sampler":0,"target":{"node":13,"path":"rotation"}},{"sampler":1,"target":{"node":12,"path":"rotation"}}]}]}