{"asset":{"version":"2.0","generator":"Blockbench 4.10.1 glTF exporter"},"scenes":[{"nodes":[8],"name":"blockbench_export"}],"scene":0,"nodes":[{"translation":[0,-0.03125,0],"name":"cuboid","mesh":0},{"translation":[1.96875,0.03125,0.03125],"name":"cuboid","mesh":1},{"translation":[-1.96875,0.03125,0.03125],"name":"cuboid","mesh":2},{"translation":[0,2.96875,0],"name":"cuboid","mesh":3},{"rotation":[0,0.7071067811865475,0,0.7071067811865476],"translation":[0,0.03125,1.96875],"name":"cuboid","mesh":4},{"translation":[1.375,0.03125,-1.96875],"name":"cuboid","mesh":5},{"translation":[-1.375,0.03125,-1.96875],"name":"cuboid","mesh":6},{"translation":[0,1.03125,-1.96875],"name":"cuboid","mesh":7},{"children":[0,1,2,3,4,5,6,7]}],"bufferViews":[{"buffer":0,"byteOffset":0,"byteLength":288,"target":34962,"byteStride":12},{"buffer":0,"byteOffset":288,"byteLength":288,"target":34962,"byteStride":12},{"buffer":0,"byteOffset":576,"byteLength":192,"target":34962,"byteStride":8},{"buffer":0,"byteOffset":768,"byteLength":72,"target":34963},{"buffer":0,"byteOffset":840,"byteLength":144,"target":34962,"byteStride":12},{"buffer":0,"byteOffset":984,"byteLength":144,"target":34962,"byteStride":12},{"buffer":0,"byteOffset":1128,"byteLength":96,"target":34962,"byteStride":8},{"buffer":0,"byteOffset":1224,"byteLength":36,"target":34963},{"buffer":0,"byteOffset":1260,"byteLength":144,"target":34962,"byteStride":12},{"buffer":0,"byteOffset":1404,"byteLength":144,"target":34962,"byteStride":12},{"buffer":0,"byteOffset":1548,"byteLength":96,"target":34962,"byteStride":8},{"buffer":0,"byteOffset":1644,"byteLength":36,"target":34963},{"buffer":0,"byteOffset":1680,"byteLength":480,"target":34962,"byteStride":12},{"buffer":0,"byteOffset":2160,"byteLength":480,"target":34962,"byteStride":12},{"buffer":0,"byteOffset":2640,"byteLength":320,"target":34962,"byteStride":8},{"buffer":0,"byteOffset":2960,"byteLength":120,"target":34963},{"buffer":0,"byteOffset":3080,"byteLength":96,"target":34962,"byteStride":12},{"buffer":0,"byteOffset":3176,"byteLength":96,"target":34962,"byteStride":12},{"buffer":0,"byteOffset":3272,"byteLength":64,"target":34962,"byteStride":8},{"buffer":0,"byteOffset":3336,"byteLength":24,"target":34963},{"buffer":0,"byteOffset":3360,"byteLength":192,"target":34962,"byteStride":12},{"buffer":0,"byteOffset":3552,"byteLength":192,"target":34962,"byteStride":12},{"buffer":0,"byteOffset":3744,"byteLength":128,"target":34962,"byteStride":8},{"buffer":0,"byteOffset":3872,"byteLength":48,"target":34963},{"buffer":0,"byteOffset":3920,"byteLength":192,"target":34962,"byteStride":12},{"buffer":0,"byteOffset":4112,"byteLength":192,"target":34962,"byteStride":12},{"buffer":0,"byteOffset":4304,"byteLength":128,"target":34962,"byteStride":8},{"buffer":0,"byteOffset":4432,"byteLength":48,"target":34963},{"buffer":0,"byteOffset":4480,"byteLength":144,"target":34962,"byteStride":12},{"buffer":0,"byteOffset":4624,"byteLength":144,"target":34962,"byteStride":12},{"buffer":0,"byteOffset":4768,"byteLength":96,"target":34962,"byteStride":8},{"buffer":0,"byteOffset":4864,"byteLength":36,"target":34963}],"buffers":[{"byteLength":4900,"uri":"data:application/octet-stream;base64,"}],"accessors":[{"bufferView":0,"componentType":5126,"count":24,"max":[2,0.09375,2],"min":[-2,0.03125,-2],"type":"VEC3"},{"bufferView":1,"componentType":5126,"count":24,"max":[1,1,1],"min":[-1,-1,-1],"type":"VEC3"},{"bufferView":2,"componentType":5126,"count":24,"max":[0.53515625,0.41015625],"min":[0,0],"type":"VEC2"},{"bufferView":3,"componentType":5123,"count":36,"max":[23],"min":[0],"type":"SCALAR"},{"bufferView":4,"componentType":5126,"count":12,"max":[0.03125,2.96875,1.96875],"min":[-0.03125,0.03125,-1.96875],"type":"VEC3"},{"bufferView":5,"componentType":5126,"count":12,"max":[1,0,1],"min":[-1,0,0],"type":"VEC3"},{"bufferView":6,"componentType":5126,"count":12,"max":[0.369140625,0.5],"min":[0.23828125,0.126953125],"type":"VEC2"},{"bufferView":7,"componentType":5123,"count":18,"max":[11],"min":[0],"type":"SCALAR"},{"bufferView":8,"componentType":5126,"count":12,"max":[0.03125,2.96875,1.96875],"min":[-0.03125,0.03125,-1.96875],"type":"VEC3"},{"bufferView":9,"componentType":5126,"count":12,"max":[1,0,1],"min":[-1,0,0],"type":"VEC3"},{"bufferView":10,"componentType":5126,"count":12,"max":[0.408203125,0.50390625],"min":[0,0],"type":"VEC2"},{"bufferView":11,"componentType":5123,"count":18,"max":[11],"min":[0],"type":"SCALAR"},{"bufferView":12,"componentType":5126,"count":40,"max":[2.5,0.84375,2.5],"min":[-2.5,0.03125,-2.5],"type":"VEC3"},{"bufferView":13,"componentType":5126,"count":40,"max":[1,1,1],"min":[-1,-1,-1],"type":"VEC3"},{"bufferView":14,"componentType":5126,"count":40,"max":[0.56640625,0.41015625],"min":[0,0],"type":"VEC2"},{"bufferView":15,"componentType":5123,"count":60,"max":[39],"min":[0],"type":"SCALAR"},{"bufferView":16,"componentType":5126,"count":8,"max":[0.03125,2.96875,1.9375],"min":[-0.03125,0.03125,-1.9375],"type":"VEC3"},{"bufferView":17,"componentType":5126,"count":8,"max":[1,0,0],"min":[-1,0,0],"type":"VEC3"},{"bufferView":18,"componentType":5126,"count":8,"max":[0.369140625,0.40625],"min":[0.125,0.314453125],"type":"VEC2"},{"bufferView":19,"componentType":5123,"count":12,"max":[7],"min":[0],"type":"SCALAR"},{"bufferView":20,"componentType":5126,"count":16,"max":[0.625,2.96875,0.03125],"min":[-0.625,0.03125,-0.03125],"type":"VEC3"},{"bufferView":21,"componentType":5126,"count":16,"max":[1,0,1],"min":[-1,0,-1],"type":"VEC3"},{"bufferView":22,"componentType":5126,"count":16,"max":[0.41015625,0.50390625],"min":[0.0859375,0.234375],"type":"VEC2"},{"bufferView":23,"componentType":5123,"count":24,"max":[15],"min":[0],"type":"SCALAR"},{"bufferView":24,"componentType":5126,"count":16,"max":[0.625,2.96875,0.03125],"min":[-0.625,0.03125,-0.03125],"type":"VEC3"},{"bufferView":25,"componentType":5126,"count":16,"max":[1,0,1],"min":[-1,0,-1],"type":"VEC3"},{"bufferView":26,"componentType":5126,"count":16,"max":[0.099609375,0.50390625],"min":[0,0.37890625],"type":"VEC2"},{"bufferView":27,"componentType":5123,"count":24,"max":[15],"min":[0],"type":"SCALAR"},{"bufferView":28,"componentType":5126,"count":12,"max":[0.75,1.96875,0.03125],"min":[-0.75,1.03125,-0.03125],"type":"VEC3"},{"bufferView":29,"componentType":5126,"count":12,"max":[0,0,1],"min":[0,-1,-1],"type":"VEC3"},{"bufferView":30,"componentType":5126,"count":12,"max":[0.22265625,0.298828125],"min":[0.126953125,0.126953125],"type":"VEC2"},{"bufferView":31,"componentType":5123,"count":18,"max":[11],"min":[0],"type":"SCALAR"}],"materials":[{"pbrMetallicRoughness":{"metallicFactor":0,"roughnessFactor":1,"baseColorTexture":{"index":0}},"alphaMode":"MASK","alphaCutoff":0.05,"doubleSided":true}],"textures":[{"sampler":0,"source":0,"name":"texture.png"}],"samplers":[{"magFilter":9728,"minFilter":9728,"wrapS":33071,"wrapT":33071}],"images":[{"mimeType":"image/png","uri":"data:image/png;base64,"}],"meshes":[{"primitives":[{"mode":4,"attributes":{"POSITION":0,"NORMAL":1,"TEXCOORD_0":2},"indices":3,"material":0}]},{"primitives":[{"mode":4,"attributes":{"POSITION":4,"NORMAL":5,"TEXCOORD_0":6},"indices":7,"material":0}]},{"primitives":[{"mode":4,"attributes":{"POSITION":8,"NORMAL":9,"TEXCOORD_0":10},"indices":11,"material":0}]},{"primitives":[{"mode":4,"attributes":{"POSITION":12,"NORMAL":13,"TEXCOORD_0":14},"indices":15,"material":0}]},{"primitives":[{"mode":4,"attributes":{"POSITION":16,"NORMAL":17,"TEXCOORD_0":18},"indices":19,"material":0}]},{"primitives":[{"mode":4,"attributes":{"POSITION":20,"NORMAL":21,"TEXCOORD_0":22},"indices":23,"material":0}]},{"primitives":[{"mode":4,"attributes":{"POSITION":24,"NORMAL":25,"TEXCOORD_0":26},"indices":27,"material":0}]},{"primitives":[{"mode":4,"attributes":{"POSITION":28,"NORMAL":29,"TEXCOORD_0":30},"indices":31,"material":0}]}]}