{"asset":{"version":"2.0","generator":"Blockbench 4.10.1 glTF exporter"},"scenes":[{"nodes":[9],"name":"blockbench_export"}],"scene":0,"nodes":[{"translation":[0,0.125,0],"name":"cuboid","mesh":0},{"translation":[0,0.125,-0.5],"name":"cuboid","mesh":1},{"translation":[0,0.140625,0.390625],"name":"cuboid","mesh":2},{"translation":[0,0.140625,0.40625],"name":"cuboid","mesh":3},{"translation":[0,0.140625,0.328125],"name":"cuboid","mesh":4},{"translation":[0,0.1171875,0.3671875],"name":"cuboid","mesh":5},{"translation":[0,0.28125,0.25],"name":"cuboid","mesh":6},{"translation":[0,0.1875,0.71875],"name":"cuboid","mesh":7},{"translation":[0,0.140625,0.9453125],"name":"cuboid","mesh":8},{"children":[0,1,2,3,4,5,6,7,8]}],"bufferViews":[{"buffer":0,"byteOffset":0,"byteLength":720,"target":34962,"byteStride":12},{"buffer":0,"byteOffset":720,"byteLength":720,"target":34962,"byteStride":12},{"buffer":0,"byteOffset":1440,"byteLength":480,"target":34962,"byteStride":8},{"buffer":0,"byteOffset":1920,"byteLength":180,"target":34963},{"buffer":0,"byteOffset":2100,"byteLength":624,"target":34962,"byteStride":12},{"buffer":0,"byteOffset":2724,"byteLength":624,"target":34962,"byteStride":12},{"buffer":0,"byteOffset":3348,"byteLength":416,"target":34962,"byteStride":8},{"buffer":0,"byteOffset":3764,"byteLength":156,"target":34963},{"buffer":0,"byteOffset":3920,"byteLength":360,"target":34962,"byteStride":12},{"buffer":0,"byteOffset":4280,"byteLength":360,"target":34962,"byteStride":12},{"buffer":0,"byteOffset":4640,"byteLength":240,"target":34962,"byteStride":8},{"buffer":0,"byteOffset":4880,"byteLength":84,"target":34963},{"buffer":0,"byteOffset":4964,"byteLength":240,"target":34962,"byteStride":12},{"buffer":0,"byteOffset":5204,"byteLength":240,"target":34962,"byteStride":12},{"buffer":0,"byteOffset":5444,"byteLength":160,"target":34962,"byteStride":8},{"buffer":0,"byteOffset":5604,"byteLength":60,"target":34963},{"buffer":0,"byteOffset":5664,"byteLength":240,"target":34962,"byteStride":12},{"buffer":0,"byteOffset":5904,"byteLength":240,"target":34962,"byteStride":12},{"buffer":0,"byteOffset":6144,"byteLength":160,"target":34962,"byteStride":8},{"buffer":0,"byteOffset":6304,"byteLength":60,"target":34963},{"buffer":0,"byteOffset":6364,"byteLength":720,"target":34962,"byteStride":12},{"buffer":0,"byteOffset":7084,"byteLength":720,"target":34962,"byteStride":12},{"buffer":0,"byteOffset":7804,"byteLength":480,"target":34962,"byteStride":8},{"buffer":0,"byteOffset":8284,"byteLength":168,"target":34963},{"buffer":0,"byteOffset":8452,"byteLength":696,"target":34962,"byteStride":12},{"buffer":0,"byteOffset":9148,"byteLength":696,"target":34962,"byteStride":12},{"buffer":0,"byteOffset":9844,"byteLength":464,"target":34962,"byteStride":8},{"buffer":0,"byteOffset":10308,"byteLength":168,"target":34963},{"buffer":0,"byteOffset":10476,"byteLength":768,"target":34962,"byteStride":12},{"buffer":0,"byteOffset":11244,"byteLength":768,"target":34962,"byteStride":12},{"buffer":0,"byteOffset":12012,"byteLength":512,"target":34962,"byteStride":8},{"buffer":0,"byteOffset":12524,"byteLength":192,"target":34963},{"buffer":0,"byteOffset":12716,"byteLength":240,"target":34962,"byteStride":12},{"buffer":0,"byteOffset":12956,"byteLength":240,"target":34962,"byteStride":12},{"buffer":0,"byteOffset":13196,"byteLength":160,"target":34962,"byteStride":8},{"buffer":0,"byteOffset":13356,"byteLength":60,"target":34963}],"buffers":[{"byteLength":13416,"uri":"data:application/octet-stream;base64,"}],"accessors":[{"bufferView":0,"componentType":5126,"count":60,"max":[0.046875,0.15625,0.5],"min":[-0.046875,0.0625,-0.5],"type":"VEC3"},{"bufferView":1,"componentType":5126,"count":60,"max":[1,1,0],"min":[-1,-1,-1],"type":"VEC3"},{"bufferView":2,"componentType":5126,"count":60,"max":[0.59375,0.6875],"min":[0.00390625,0],"type":"VEC2"},{"bufferView":3,"componentType":5123,"count":90,"max":[59],"min":[0],"type":"SCALAR"},{"bufferView":4,"componentType":5126,"count":52,"max":[0.03125,0.171875,0],"min":[-0.03125,0.09375,-0.25],"type":"VEC3"},{"bufferView":5,"componentType":5126,"count":52,"max":[1,1,0.4472135901451111],"min":[-1,-1,-1],"type":"VEC3"},{"bufferView":6,"componentType":5126,"count":52,"max":[0.5625,0.65625],"min":[0.28125,0.375],"type":"VEC2"},{"bufferView":7,"componentType":5123,"count":78,"max":[51],"min":[0],"type":"SCALAR"},{"bufferView":8,"componentType":5126,"count":30,"max":[0.03125,0.046875,-0.0078125],"min":[-0.03125,0.015625,-0.0234375],"type":"VEC3"},{"bufferView":9,"componentType":5126,"count":30,"max":[1,0,1],"min":[-1,-0.7071067690849304,-1],"type":"VEC3"},{"bufferView":10,"componentType":5126,"count":30,"max":[0.71875,0.6953125],"min":[0,0.3125],"type":"VEC2"},{"bufferView":11,"componentType":5123,"count":42,"max":[29],"min":[0],"type":"SCALAR"},{"bufferView":12,"componentType":5126,"count":20,"max":[0.03125,0.046875,0.0078125],"min":[-0.03125,0.015625,-0.0078125],"type":"VEC3"},{"bufferView":13,"componentType":5126,"count":20,"max":[1,0,1],"min":[-1,-1,-1],"type":"VEC3"},{"bufferView":14,"componentType":5126,"count":20,"max":[0.71875,0.6875],"min":[0.34375,0],"type":"VEC2"},{"bufferView":15,"componentType":5123,"count":30,"max":[19],"min":[0],"type":"SCALAR"},{"bufferView":16,"componentType":5126,"count":20,"max":[0.03125,0.046875,0.0078125],"min":[-0.03125,0.015625,-0.0078125],"type":"VEC3"},{"bufferView":17,"componentType":5126,"count":20,"max":[1,0,1],"min":[-1,-1,-1],"type":"VEC3"},{"bufferView":18,"componentType":5126,"count":20,"max":[0.71875,0.71875],"min":[0.28125,0.3125],"type":"VEC2"},{"bufferView":19,"componentType":5123,"count":30,"max":[19],"min":[0],"type":"SCALAR"},{"bufferView":20,"componentType":5126,"count":60,"max":[0.03125,0.0390625,0.046875],"min":[-0.03125,0.0234375,-0.046875],"type":"VEC3"},{"bufferView":21,"componentType":5126,"count":60,"max":[1,1,0.5547001957893372],"min":[-1,-1,-0.5547001957893372],"type":"VEC3"},{"bufferView":22,"componentType":5126,"count":60,"max":[0.734375,0.6953125],"min":[0.53125,0.0030812621116638184],"type":"VEC2"},{"bufferView":23,"componentType":5123,"count":84,"max":[59],"min":[0],"type":"SCALAR"},{"bufferView":24,"componentType":5126,"count":58,"max":[0.046875,0.015625,0.25],"min":[-0.046875,-0.015625,-0.25],"type":"VEC3"},{"bufferView":25,"componentType":5126,"count":58,"max":[1,1,0.4472135901451111],"min":[-1,0,-0.12403473258018494],"type":"VEC3"},{"bufferView":26,"componentType":5126,"count":58,"max":[0.78125,0.4398312568664551],"min":[0.34765625,0.1875],"type":"VEC2"},{"bufferView":27,"componentType":5123,"count":84,"max":[57],"min":[0],"type":"SCALAR"},{"bufferView":28,"componentType":5126,"count":64,"max":[0.046875,0.09375,0.21875],"min":[-0.046875,-0.09375,-0.21875],"type":"VEC3"},{"bufferView":29,"componentType":5126,"count":64,"max":[1,1,0.49613893032073975],"min":[-1,-0.9615239500999451,-0.49613893032073975],"type":"VEC3"},{"bufferView":30,"componentType":5126,"count":64,"max":[0.65625,0.6625875234603882],"min":[0.09375,0.1875],"type":"VEC2"},{"bufferView":31,"componentType":5123,"count":96,"max":[63],"min":[0],"type":"SCALAR"},{"bufferView":32,"componentType":5126,"count":20,"max":[0.046875,0.109375,0.0078125],"min":[-0.046875,-0.046875,-0.0078125],"type":"VEC3"},{"bufferView":33,"componentType":5126,"count":20,"max":[1,0.7071067690849304,1],"min":[-1,-0.7071067690849304,0],"type":"VEC3"},{"bufferView":34,"componentType":5126,"count":20,"max":[0.65625,0.640625],"min":[0,0.4375],"type":"VEC2"},{"bufferView":35,"componentType":5123,"count":30,"max":[19],"min":[0],"type":"SCALAR"}],"materials":[{"pbrMetallicRoughness":{"metallicFactor":0,"roughnessFactor":1,"baseColorTexture":{"index":0}},"alphaMode":"MASK","alphaCutoff":0.05,"doubleSided":true}],"textures":[{"sampler":0,"source":0,"name":"M1GarandTexture.png"}],"samplers":[{"magFilter":9728,"minFilter":9728,"wrapS":33071,"wrapT":33071}],"images":[{"mimeType":"image/png","uri":"data:image/png;base64,"}],"meshes":[{"primitives":[{"mode":4,"attributes":{"POSITION":0,"NORMAL":1,"TEXCOORD_0":2},"indices":3,"material":0}]},{"primitives":[{"mode":4,"attributes":{"POSITION":4,"NORMAL":5,"TEXCOORD_0":6},"indices":7,"material":0}]},{"primitives":[{"mode":4,"attributes":{"POSITION":8,"NORMAL":9,"TEXCOORD_0":10},"indices":11,"material":0}]},{"primitives":[{"mode":4,"attributes":{"POSITION":12,"NORMAL":13,"TEXCOORD_0":14},"indices":15,"material":0}]},{"primitives":[{"mode":4,"attributes":{"POSITION":16,"NORMAL":17,"TEXCOORD_0":18},"indices":19,"material":0}]},{"primitives":[{"mode":4,"attributes":{"POSITION":20,"NORMAL":21,"TEXCOORD_0":22},"indices":23,"material":0}]},{"primitives":[{"mode":4,"attributes":{"POSITION":24,"NORMAL":25,"TEXCOORD_0":26},"indices":27,"material":0}]},{"primitives":[{"mode":4,"attributes":{"POSITION":28,"NORMAL":29,"TEXCOORD_0":30},"indices":31,"material":0}]},{"primitives":[{"mode":4,"attributes":{"POSITION":32,"NORMAL":33,"TEXCOORD_0":34},"indices":35,"material":0}]}]}