{"asset":{"version":"2.0","generator":"Blockbench 4.10.1 glTF exporter"},"scenes":[{"nodes":[11],"name":"blockbench_export"}],"scene":0,"nodes":[{"translation":[0.3125,0,-0.3125],"name":"cuboid","mesh":0},{"translation":[0.03125,0,-0.25],"name":"cuboid","mesh":1},{"translation":[-0.34375,0,0.3125],"name":"cuboid","mesh":2},{"translation":[-0.28125,0,-0.3125],"name":"cuboid","mesh":3},{"translation":[0.34375,0,-0.0625],"name":"cuboid","mesh":4},{"translation":[-0.4375,0,0.0625],"name":"cuboid","mesh":5},{"translation":[-0.1875,0,0.0625],"name":"cuboid","mesh":6},{"translation":[0,0,0.3125],"name":"cuboid","mesh":7},{"translation":[0.0625,0,0],"name":"cuboid","mesh":8},{"translation":[0.28125,0,0.375],"name":"cuboid","mesh":9},{"translation":[0.3125,0,0.125],"name":"cuboid","mesh":10},{"children":[0,1,2,3,4,5,6,7,8,9,10]}],"bufferViews":[{"buffer":0,"byteOffset":0,"byteLength":288,"target":34962,"byteStride":12},{"buffer":0,"byteOffset":288,"byteLength":288,"target":34962,"byteStride":12},{"buffer":0,"byteOffset":576,"byteLength":192,"target":34962,"byteStride":8},{"buffer":0,"byteOffset":768,"byteLength":72,"target":34963},{"buffer":0,"byteOffset":840,"byteLength":288,"target":34962,"byteStride":12},{"buffer":0,"byteOffset":1128,"byteLength":288,"target":34962,"byteStride":12},{"buffer":0,"byteOffset":1416,"byteLength":192,"target":34962,"byteStride":8},{"buffer":0,"byteOffset":1608,"byteLength":72,"target":34963},{"buffer":0,"byteOffset":1680,"byteLength":288,"target":34962,"byteStride":12},{"buffer":0,"byteOffset":1968,"byteLength":288,"target":34962,"byteStride":12},{"buffer":0,"byteOffset":2256,"byteLength":192,"target":34962,"byteStride":8},{"buffer":0,"byteOffset":2448,"byteLength":72,"target":34963},{"buffer":0,"byteOffset":2520,"byteLength":672,"target":34962,"byteStride":12},{"buffer":0,"byteOffset":3192,"byteLength":672,"target":34962,"byteStride":12},{"buffer":0,"byteOffset":3864,"byteLength":448,"target":34962,"byteStride":8},{"buffer":0,"byteOffset":4312,"byteLength":168,"target":34963},{"buffer":0,"byteOffset":4480,"byteLength":288,"target":34962,"byteStride":12},{"buffer":0,"byteOffset":4768,"byteLength":288,"target":34962,"byteStride":12},{"buffer":0,"byteOffset":5056,"byteLength":192,"target":34962,"byteStride":8},{"buffer":0,"byteOffset":5248,"byteLength":72,"target":34963},{"buffer":0,"byteOffset":5320,"byteLength":288,"target":34962,"byteStride":12},{"buffer":0,"byteOffset":5608,"byteLength":288,"target":34962,"byteStride":12},{"buffer":0,"byteOffset":5896,"byteLength":192,"target":34962,"byteStride":8},{"buffer":0,"byteOffset":6088,"byteLength":72,"target":34963},{"buffer":0,"byteOffset":6160,"byteLength":672,"target":34962,"byteStride":12},{"buffer":0,"byteOffset":6832,"byteLength":672,"target":34962,"byteStride":12},{"buffer":0,"byteOffset":7504,"byteLength":448,"target":34962,"byteStride":8},{"buffer":0,"byteOffset":7952,"byteLength":168,"target":34963},{"buffer":0,"byteOffset":8120,"byteLength":288,"target":34962,"byteStride":12},{"buffer":0,"byteOffset":8408,"byteLength":288,"target":34962,"byteStride":12},{"buffer":0,"byteOffset":8696,"byteLength":192,"target":34962,"byteStride":8},{"buffer":0,"byteOffset":8888,"byteLength":72,"target":34963},{"buffer":0,"byteOffset":8960,"byteLength":672,"target":34962,"byteStride":12},{"buffer":0,"byteOffset":9632,"byteLength":672,"target":34962,"byteStride":12},{"buffer":0,"byteOffset":10304,"byteLength":448,"target":34962,"byteStride":8},{"buffer":0,"byteOffset":10752,"byteLength":168,"target":34963},{"buffer":0,"byteOffset":10920,"byteLength":288,"target":34962,"byteStride":12},{"buffer":0,"byteOffset":11208,"byteLength":288,"target":34962,"byteStride":12},{"buffer":0,"byteOffset":11496,"byteLength":192,"target":34962,"byteStride":8},{"buffer":0,"byteOffset":11688,"byteLength":72,"target":34963},{"buffer":0,"byteOffset":11760,"byteLength":864,"target":34962,"byteStride":12},{"buffer":0,"byteOffset":12624,"byteLength":864,"target":34962,"byteStride":12},{"buffer":0,"byteOffset":13488,"byteLength":576,"target":34962,"byteStride":8},{"buffer":0,"byteOffset":14064,"byteLength":216,"target":34963}],"buffers":[{"byteLength":14280,"uri":"data:application/octet-stream;base64,"}],"accessors":[{"bufferView":0,"componentType":5126,"count":24,"max":[0.125,0.0625,0.125],"min":[-0.125,0,-0.125],"type":"VEC3"},{"bufferView":1,"componentType":5126,"count":24,"max":[1,1,1],"min":[-1,-1,-1],"type":"VEC3"},{"bufferView":2,"componentType":5126,"count":24,"max":[0.78125,0.65625],"min":[0,0],"type":"VEC2"},{"bufferView":3,"componentType":5123,"count":36,"max":[23],"min":[0],"type":"SCALAR"},{"bufferView":4,"componentType":5126,"count":24,"max":[0.09375,0.0625,0.125],"min":[-0.09375,0,-0.125],"type":"VEC3"},{"bufferView":5,"componentType":5126,"count":24,"max":[1,1,1],"min":[-1,-1,-1],"type":"VEC3"},{"bufferView":6,"componentType":5126,"count":24,"max":[0.78125,0.78125],"min":[0.15625,0],"type":"VEC2"},{"bufferView":7,"componentType":5123,"count":36,"max":[23],"min":[0],"type":"SCALAR"},{"bufferView":8,"componentType":5126,"count":24,"max":[0.09375,0.0625,0.125],"min":[-0.09375,0,-0.125],"type":"VEC3"},{"bufferView":9,"componentType":5126,"count":24,"max":[1,1,1],"min":[-1,-1,-1],"type":"VEC3"},{"bufferView":10,"componentType":5126,"count":24,"max":[0.78125,0.8125],"min":[0,0.375],"type":"VEC2"},{"bufferView":11,"componentType":5123,"count":36,"max":[23],"min":[0],"type":"SCALAR"},{"bufferView":12,"componentType":5126,"count":56,"max":[0.15625,0.0625,0.25],"min":[-0.15625,0,-0.125],"type":"VEC3"},{"bufferView":13,"componentType":5126,"count":56,"max":[1,1,1],"min":[-1,-1,-1],"type":"VEC3"},{"bufferView":14,"componentType":5126,"count":56,"max":[0.84375,0.8125],"min":[0,0],"type":"VEC2"},{"bufferView":15,"componentType":5123,"count":84,"max":[55],"min":[0],"type":"SCALAR"},{"bufferView":16,"componentType":5126,"count":24,"max":[0.09375,0.0625,0.0625],"min":[-0.09375,0,-0.0625],"type":"VEC3"},{"bufferView":17,"componentType":5126,"count":24,"max":[1,1,1],"min":[-1,-1,-1],"type":"VEC3"},{"bufferView":18,"componentType":5126,"count":24,"max":[0.90625,0.59375],"min":[0.34375,0],"type":"VEC2"},{"bufferView":19,"componentType":5123,"count":36,"max":[23],"min":[0],"type":"SCALAR"},{"bufferView":20,"componentType":5126,"count":24,"max":[0.0625,0.0625,0.0625],"min":[-0.0625,0,-0.0625],"type":"VEC3"},{"bufferView":21,"componentType":5126,"count":24,"max":[1,1,1],"min":[-1,-1,-1],"type":"VEC3"},{"bufferView":22,"componentType":5126,"count":24,"max":[0.875,0.84375],"min":[0,0.4375],"type":"VEC2"},{"bufferView":23,"componentType":5123,"count":36,"max":[23],"min":[0],"type":"SCALAR"},{"bufferView":24,"componentType":5126,"count":56,"max":[0.125,0.0625,0.0625],"min":[-0.125,0,-0.125],"type":"VEC3"},{"bufferView":25,"componentType":5126,"count":56,"max":[1,1,1],"min":[-1,-1,-1],"type":"VEC3"},{"bufferView":26,"componentType":5126,"count":56,"max":[0.875,0.875],"min":[0,0],"type":"VEC2"},{"bufferView":27,"componentType":5123,"count":84,"max":[55],"min":[0],"type":"SCALAR"},{"bufferView":28,"componentType":5126,"count":24,"max":[0.125,0.0625,0.125],"min":[-0.125,0,-0.125],"type":"VEC3"},{"bufferView":29,"componentType":5126,"count":24,"max":[1,1,1],"min":[-1,-1,-1],"type":"VEC3"},{"bufferView":30,"componentType":5126,"count":24,"max":[0.8125,0.75],"min":[0,0.21875],"type":"VEC2"},{"bufferView":31,"componentType":5123,"count":36,"max":[23],"min":[0],"type":"SCALAR"},{"bufferView":32,"componentType":5126,"count":56,"max":[0.0625,0.0625,0.125],"min":[-0.0625,0,-0.0625],"type":"VEC3"},{"bufferView":33,"componentType":5126,"count":56,"max":[1,1,1],"min":[-1,-1,-1],"type":"VEC3"},{"bufferView":34,"componentType":5126,"count":56,"max":[0.90625,0.9375],"min":[0,0.125],"type":"VEC2"},{"bufferView":35,"componentType":5123,"count":84,"max":[55],"min":[0],"type":"SCALAR"},{"bufferView":36,"componentType":5126,"count":24,"max":[0.09375,0.0625,0.0625],"min":[-0.09375,0,-0.0625],"type":"VEC3"},{"bufferView":37,"componentType":5126,"count":24,"max":[1,1,1],"min":[-1,-1,-1],"type":"VEC3"},{"bufferView":38,"componentType":5126,"count":24,"max":[0.90625,0.875],"min":[0.125,0.1875],"type":"VEC2"},{"bufferView":39,"componentType":5123,"count":36,"max":[23],"min":[0],"type":"SCALAR"},{"bufferView":40,"componentType":5126,"count":72,"max":[0.1875,0.0625,0.125],"min":[-0.125,0,-0.0625],"type":"VEC3"},{"bufferView":41,"componentType":5126,"count":72,"max":[1,1,1],"min":[-1,-1,-1],"type":"VEC3"},{"bufferView":42,"componentType":5126,"count":72,"max":[0.9375,0.9375],"min":[0,0.1875],"type":"VEC2"},{"bufferView":43,"componentType":5123,"count":108,"max":[71],"min":[0],"type":"SCALAR"}],"materials":[{"pbrMetallicRoughness":{"metallicFactor":0,"roughnessFactor":1,"baseColorTexture":{"index":0}},"alphaMode":"MASK","alphaCutoff":0.05,"doubleSided":true}],"textures":[{"sampler":0,"source":0,"name":"StonePathTexture.png"}],"samplers":[{"magFilter":9728,"minFilter":9728,"wrapS":33071,"wrapT":33071}],"images":[{"mimeType":"image/png","uri":"data:image/png;base64,"}],"meshes":[{"primitives":[{"mode":4,"attributes":{"POSITION":0,"NORMAL":1,"TEXCOORD_0":2},"indices":3,"material":0}]},{"primitives":[{"mode":4,"attributes":{"POSITION":4,"NORMAL":5,"TEXCOORD_0":6},"indices":7,"material":0}]},{"primitives":[{"mode":4,"attributes":{"POSITION":8,"NORMAL":9,"TEXCOORD_0":10},"indices":11,"material":0}]},{"primitives":[{"mode":4,"attributes":{"POSITION":12,"NORMAL":13,"TEXCOORD_0":14},"indices":15,"material":0}]},{"primitives":[{"mode":4,"attributes":{"POSITION":16,"NORMAL":17,"TEXCOORD_0":18},"indices":19,"material":0}]},{"primitives":[{"mode":4,"attributes":{"POSITION":20,"NORMAL":21,"TEXCOORD_0":22},"indices":23,"material":0}]},{"primitives":[{"mode":4,"attributes":{"POSITION":24,"NORMAL":25,"TEXCOORD_0":26},"indices":27,"material":0}]},{"primitives":[{"mode":4,"attributes":{"POSITION":28,"NORMAL":29,"TEXCOORD_0":30},"indices":31,"material":0}]},{"primitives":[{"mode":4,"attributes":{"POSITION":32,"NORMAL":33,"TEXCOORD_0":34},"indices":35,"material":0}]},{"primitives":[{"mode":4,"attributes":{"POSITION":36,"NORMAL":37,"TEXCOORD_0":38},"indices":39,"material":0}]},{"primitives":[{"mode":4,"attributes":{"POSITION":40,"NORMAL":41,"TEXCOORD_0":42},"indices":43,"material":0}]}]}