{"asset":{"version":"2.0","generator":"Blockbench 4.10.1 glTF exporter"},"scenes":[{"nodes":[25],"name":"blockbench_export"}],"scene":0,"nodes":[{"name":"cylinder","mesh":0},{"name":"cuboid","mesh":1},{"name":"cuboid","mesh":2},{"name":"cuboid","mesh":3},{"name":"cylinder","mesh":4},{"name":"cylinder","mesh":5},{"name":"cylinder","mesh":6},{"name":"cuboid","mesh":7},{"name":"cuboid","mesh":8},{"name":"cuboid","mesh":9},{"name":"cuboid","mesh":10},{"name":"cuboid","mesh":11},{"name":"cuboid","mesh":12},{"name":"cuboid","mesh":13},{"name":"cuboid","mesh":14},{"rotation":[0.7071067811865475,0,0,0.7071067811865476],"name":"cylinder","mesh":15},{"rotation":[0.7071067811865475,0,0,0.7071067811865476],"name":"cylinder","mesh":16},{"rotation":[4.329780281177466e-17,0.7071067811865475,-0.7071067811865476,4.329780281177467e-17],"name":"cylinder","mesh":17},{"rotation":[4.329780281177466e-17,0.7071067811865475,-0.7071067811865476,4.329780281177467e-17],"name":"cylinder","mesh":18},{"rotation":[0,0,0.7071067811865475,0.7071067811865476],"name":"cylinder","mesh":19},{"rotation":[0,0,0.7071067811865475,0.7071067811865476],"name":"cylinder","mesh":20},{"rotation":[0,0,0.7071067811865475,0.7071067811865476],"name":"cylinder","mesh":21},{"name":"cuboid","mesh":22},{"name":"cuboid","mesh":23},{"name":"cuboid","mesh":24},{"children":[0,1,2,3,4,5,6,7,8,9,10,11,12,13,14,15,16,17,18,19,20,21,22,23,24]}],"bufferViews":[{"buffer":0,"byteOffset":0,"byteLength":1080,"target":34962,"byteStride":12},{"buffer":0,"byteOffset":1080,"byteLength":1080,"target":34962,"byteStride":12},{"buffer":0,"byteOffset":2160,"byteLength":720,"target":34962,"byteStride":8},{"buffer":0,"byteOffset":2880,"byteLength":216,"target":34963},{"buffer":0,"byteOffset":3096,"byteLength":288,"target":34962,"byteStride":12},{"buffer":0,"byteOffset":3384,"byteLength":288,"target":34962,"byteStride":12},{"buffer":0,"byteOffset":3672,"byteLength":192,"target":34962,"byteStride":8},{"buffer":0,"byteOffset":3864,"byteLength":72,"target":34963},{"buffer":0,"byteOffset":3936,"byteLength":288,"target":34962,"byteStride":12},{"buffer":0,"byteOffset":4224,"byteLength":288,"target":34962,"byteStride":12},{"buffer":0,"byteOffset":4512,"byteLength":192,"target":34962,"byteStride":8},{"buffer":0,"byteOffset":4704,"byteLength":72,"target":34963},{"buffer":0,"byteOffset":4776,"byteLength":288,"target":34962,"byteStride":12},{"buffer":0,"byteOffset":5064,"byteLength":288,"target":34962,"byteStride":12},{"buffer":0,"byteOffset":5352,"byteLength":192,"target":34962,"byteStride":8},{"buffer":0,"byteOffset":5544,"byteLength":72,"target":34963},{"buffer":0,"byteOffset":5616,"byteLength":1080,"target":34962,"byteStride":12},{"buffer":0,"byteOffset":6696,"byteLength":1080,"target":34962,"byteStride":12},{"buffer":0,"byteOffset":7776,"byteLength":720,"target":34962,"byteStride":8},{"buffer":0,"byteOffset":8496,"byteLength":216,"target":34963},{"buffer":0,"byteOffset":8712,"byteLength":1080,"target":34962,"byteStride":12},{"buffer":0,"byteOffset":9792,"byteLength":1080,"target":34962,"byteStride":12},{"buffer":0,"byteOffset":10872,"byteLength":720,"target":34962,"byteStride":8},{"buffer":0,"byteOffset":11592,"byteLength":216,"target":34963},{"buffer":0,"byteOffset":11808,"byteLength":1080,"target":34962,"byteStride":12},{"buffer":0,"byteOffset":12888,"byteLength":1080,"target":34962,"byteStride":12},{"buffer":0,"byteOffset":13968,"byteLength":720,"target":34962,"byteStride":8},{"buffer":0,"byteOffset":14688,"byteLength":216,"target":34963},{"buffer":0,"byteOffset":14904,"byteLength":288,"target":34962,"byteStride":12},{"buffer":0,"byteOffset":15192,"byteLength":288,"target":34962,"byteStride":12},{"buffer":0,"byteOffset":15480,"byteLength":192,"target":34962,"byteStride":8},{"buffer":0,"byteOffset":15672,"byteLength":72,"target":34963},{"buffer":0,"byteOffset":15744,"byteLength":288,"target":34962,"byteStride":12},{"buffer":0,"byteOffset":16032,"byteLength":288,"target":34962,"byteStride":12},{"buffer":0,"byteOffset":16320,"byteLength":192,"target":34962,"byteStride":8},{"buffer":0,"byteOffset":16512,"byteLength":72,"target":34963},{"buffer":0,"byteOffset":16584,"byteLength":288,"target":34962,"byteStride":12},{"buffer":0,"byteOffset":16872,"byteLength":288,"target":34962,"byteStride":12},{"buffer":0,"byteOffset":17160,"byteLength":192,"target":34962,"byteStride":8},{"buffer":0,"byteOffset":17352,"byteLength":72,"target":34963},{"buffer":0,"byteOffset":17424,"byteLength":288,"target":34962,"byteStride":12},{"buffer":0,"byteOffset":17712,"byteLength":288,"target":34962,"byteStride":12},{"buffer":0,"byteOffset":18000,"byteLength":192,"target":34962,"byteStride":8},{"buffer":0,"byteOffset":18192,"byteLength":72,"target":34963},{"buffer":0,"byteOffset":18264,"byteLength":288,"target":34962,"byteStride":12},{"buffer":0,"byteOffset":18552,"byteLength":288,"target":34962,"byteStride":12},{"buffer":0,"byteOffset":18840,"byteLength":192,"target":34962,"byteStride":8},{"buffer":0,"byteOffset":19032,"byteLength":72,"target":34963},{"buffer":0,"byteOffset":19104,"byteLength":288,"target":34962,"byteStride":12},{"buffer":0,"byteOffset":19392,"byteLength":288,"target":34962,"byteStride":12},{"buffer":0,"byteOffset":19680,"byteLength":192,"target":34962,"byteStride":8},{"buffer":0,"byteOffset":19872,"byteLength":72,"target":34963},{"buffer":0,"byteOffset":19944,"byteLength":288,"target":34962,"byteStride":12},{"buffer":0,"byteOffset":20232,"byteLength":288,"target":34962,"byteStride":12},{"buffer":0,"byteOffset":20520,"byteLength":192,"target":34962,"byteStride":8},{"buffer":0,"byteOffset":20712,"byteLength":72,"target":34963},{"buffer":0,"byteOffset":20784,"byteLength":288,"target":34962,"byteStride":12},{"buffer":0,"byteOffset":21072,"byteLength":288,"target":34962,"byteStride":12},{"buffer":0,"byteOffset":21360,"byteLength":192,"target":34962,"byteStride":8},{"buffer":0,"byteOffset":21552,"byteLength":72,"target":34963},{"buffer":0,"byteOffset":21624,"byteLength":420,"target":34962,"byteStride":12},{"buffer":0,"byteOffset":22044,"byteLength":420,"target":34962,"byteStride":12},{"buffer":0,"byteOffset":22464,"byteLength":280,"target":34962,"byteStride":8},{"buffer":0,"byteOffset":22744,"byteLength":92,"target":34963},{"buffer":0,"byteOffset":22836,"byteLength":420,"target":34962,"byteStride":12},{"buffer":0,"byteOffset":23256,"byteLength":420,"target":34962,"byteStride":12},{"buffer":0,"byteOffset":23676,"byteLength":280,"target":34962,"byteStride":8},{"buffer":0,"byteOffset":23956,"byteLength":92,"target":34963},{"buffer":0,"byteOffset":24048,"byteLength":420,"target":34962,"byteStride":12},{"buffer":0,"byteOffset":24468,"byteLength":420,"target":34962,"byteStride":12},{"buffer":0,"byteOffset":24888,"byteLength":280,"target":34962,"byteStride":8},{"buffer":0,"byteOffset":25168,"byteLength":92,"target":34963},{"buffer":0,"byteOffset":25260,"byteLength":420,"target":34962,"byteStride":12},{"buffer":0,"byteOffset":25680,"byteLength":420,"target":34962,"byteStride":12},{"buffer":0,"byteOffset":26100,"byteLength":280,"target":34962,"byteStride":8},{"buffer":0,"byteOffset":26380,"byteLength":92,"target":34963},{"buffer":0,"byteOffset":26472,"byteLength":960,"target":34962,"byteStride":12},{"buffer":0,"byteOffset":27432,"byteLength":960,"target":34962,"byteStride":12},{"buffer":0,"byteOffset":28392,"byteLength":640,"target":34962,"byteStride":8},{"buffer":0,"byteOffset":29032,"byteLength":192,"target":34963},{"buffer":0,"byteOffset":29224,"byteLength":960,"target":34962,"byteStride":12},{"buffer":0,"byteOffset":30184,"byteLength":960,"target":34962,"byteStride":12},{"buffer":0,"byteOffset":31144,"byteLength":640,"target":34962,"byteStride":8},{"buffer":0,"byteOffset":31784,"byteLength":192,"target":34963},{"buffer":0,"byteOffset":31976,"byteLength":960,"target":34962,"byteStride":12},{"buffer":0,"byteOffset":32936,"byteLength":960,"target":34962,"byteStride":12},{"buffer":0,"byteOffset":33896,"byteLength":640,"target":34962,"byteStride":8},{"buffer":0,"byteOffset":34536,"byteLength":192,"target":34963},{"buffer":0,"byteOffset":34728,"byteLength":480,"target":34962,"byteStride":12},{"buffer":0,"byteOffset":35208,"byteLength":480,"target":34962,"byteStride":12},{"buffer":0,"byteOffset":35688,"byteLength":320,"target":34962,"byteStride":8},{"buffer":0,"byteOffset":36008,"byteLength":120,"target":34963},{"buffer":0,"byteOffset":36128,"byteLength":480,"target":34962,"byteStride":12},{"buffer":0,"byteOffset":36608,"byteLength":480,"target":34962,"byteStride":12},{"buffer":0,"byteOffset":37088,"byteLength":320,"target":34962,"byteStride":8},{"buffer":0,"byteOffset":37408,"byteLength":120,"target":34963},{"buffer":0,"byteOffset":37528,"byteLength":1056,"target":34962,"byteStride":12},{"buffer":0,"byteOffset":38584,"byteLength":1056,"target":34962,"byteStride":12},{"buffer":0,"byteOffset":39640,"byteLength":704,"target":34962,"byteStride":8},{"buffer":0,"byteOffset":40344,"byteLength":264,"target":34963}],"buffers":[{"byteLength":40608,"uri":"data:application/octet-stream;base64,"}],"accessors":[{"bufferView":0,"componentType":5126,"count":90,"max":[-0.6069960594177246,0.524066686630249,-0.5],"min":[-1.3930039405822754,-0.25,-0.75],"type":"VEC3"},{"bufferView":1,"componentType":5126,"count":90,"max":[0.9848077297210693,0.9396926164627075,1],"min":[-0.9848077297210693,-1,-1],"type":"VEC3"},{"bufferView":2,"componentType":5126,"count":90,"max":[0.7421875,0.734375],"min":[0,0],"type":"VEC2"},{"bufferView":3,"componentType":5123,"count":108,"max":[89],"min":[0],"type":"SCALAR"},{"bufferView":4,"componentType":5126,"count":24,"max":[1.5625,0.5625,-0.1875],"min":[1.5,0.3125,-0.4375],"type":"VEC3"},{"bufferView":5,"componentType":5126,"count":24,"max":[1,1,1],"min":[-1,-1,-1],"type":"VEC3"},{"bufferView":6,"componentType":5126,"count":24,"max":[0.8046875,0.5546875],"min":[0.171875,0],"type":"VEC2"},{"bufferView":7,"componentType":5123,"count":36,"max":[23],"min":[0],"type":"SCALAR"},{"bufferView":8,"componentType":5126,"count":24,"max":[0.53125,0.625,0.5625],"min":[0.28125,0.5,0.5],"type":"VEC3"},{"bufferView":9,"componentType":5126,"count":24,"max":[1,1,1],"min":[-1,-1,-1],"type":"VEC3"},{"bufferView":10,"componentType":5126,"count":24,"max":[0.734375,0.6171875],"min":[0,0],"type":"VEC2"},{"bufferView":11,"componentType":5123,"count":36,"max":[23],"min":[0],"type":"SCALAR"},{"bufferView":12,"componentType":5126,"count":24,"max":[1.5625,0.25,0.4375],"min":[1.5,0,-0.4375],"type":"VEC3"},{"bufferView":13,"componentType":5126,"count":24,"max":[1,1,1],"min":[-1,-1,-1],"type":"VEC3"},{"bufferView":14,"componentType":5126,"count":24,"max":[0.796875,0.8828125],"min":[0.390625,0.5],"type":"VEC2"},{"bufferView":15,"componentType":5123,"count":36,"max":[23],"min":[0],"type":"SCALAR"},{"bufferView":16,"componentType":5126,"count":90,"max":[1.3930039405822754,0.524066686630249,-0.5],"min":[0.6069960594177246,-0.25,-0.75],"type":"VEC3"},{"bufferView":17,"componentType":5126,"count":90,"max":[0.9848077297210693,0.9396926164627075,1],"min":[-0.9848077297210693,-1,-1],"type":"VEC3"},{"bufferView":18,"componentType":5126,"count":90,"max":[0.7734375,0.7734375],"min":[0,0],"type":"VEC2"},{"bufferView":19,"componentType":5123,"count":108,"max":[89],"min":[0],"type":"SCALAR"},{"bufferView":20,"componentType":5126,"count":90,"max":[-0.6069960594177246,0.524066686630249,0.75],"min":[-1.3930039405822754,-0.25,0.5],"type":"VEC3"},{"bufferView":21,"componentType":5126,"count":90,"max":[0.9848077297210693,0.9396926164627075,1],"min":[-0.9848077297210693,-1,-1],"type":"VEC3"},{"bufferView":22,"componentType":5126,"count":90,"max":[0.78125,0.7734375],"min":[0.3297804594039917,0.1328125],"type":"VEC2"},{"bufferView":23,"componentType":5123,"count":108,"max":[89],"min":[0],"type":"SCALAR"},{"bufferView":24,"componentType":5126,"count":90,"max":[1.3930039405822754,0.524066686630249,0.75],"min":[0.6069960594177246,-0.25,0.5],"type":"VEC3"},{"bufferView":25,"componentType":5126,"count":90,"max":[0.9848077297210693,0.9396926164627075,1],"min":[-0.9848077297210693,-1,-1],"type":"VEC3"},{"bufferView":26,"componentType":5126,"count":90,"max":[0.8125,0.8125],"min":[0,0],"type":"VEC2"},{"bufferView":27,"componentType":5123,"count":108,"max":[89],"min":[0],"type":"SCALAR"},{"bufferView":28,"componentType":5126,"count":24,"max":[0,0.875,-0.4375],"min":[-1.5,0.625,-0.5],"type":"VEC3"},{"bufferView":29,"componentType":5126,"count":24,"max":[1,1,1],"min":[-1,-1,-1],"type":"VEC3"},{"bufferView":30,"componentType":5126,"count":24,"max":[0.8125,0.8359375],"min":[0.4375,0.0625],"type":"VEC2"},{"bufferView":31,"componentType":5123,"count":36,"max":[23],"min":[0],"type":"SCALAR"},{"bufferView":32,"componentType":5126,"count":24,"max":[0,0.875,0.5],"min":[-1.5,0.625,0.4375],"type":"VEC3"},{"bufferView":33,"componentType":5126,"count":24,"max":[1,1,1],"min":[-1,-1,-1],"type":"VEC3"},{"bufferView":34,"componentType":5126,"count":24,"max":[0.8125,0.8359375],"min":[0.46875,0.1015625],"type":"VEC2"},{"bufferView":35,"componentType":5123,"count":36,"max":[23],"min":[0],"type":"SCALAR"},{"bufferView":36,"componentType":5126,"count":24,"max":[-1.4375,0.875,0.4375],"min":[-1.5,0.625,-0.4375],"type":"VEC3"},{"bufferView":37,"componentType":5126,"count":24,"max":[1,1,1],"min":[-1,-1,-1],"type":"VEC3"},{"bufferView":38,"componentType":5126,"count":24,"max":[0.8125,0.90625],"min":[0.1328125,0.5390625],"type":"VEC2"},{"bufferView":39,"componentType":5123,"count":36,"max":[23],"min":[0],"type":"SCALAR"},{"bufferView":40,"componentType":5126,"count":24,"max":[-1.5,0.375,-0.1875],"min":[-1.5625,0.1875,-0.4375],"type":"VEC3"},{"bufferView":41,"componentType":5126,"count":24,"max":[1,1,1],"min":[-1,-1,-1],"type":"VEC3"},{"bufferView":42,"componentType":5126,"count":24,"max":[0.8125,0.765625],"min":[0.046875,0.046875],"type":"VEC2"},{"bufferView":43,"componentType":5123,"count":36,"max":[23],"min":[0],"type":"SCALAR"},{"bufferView":44,"componentType":5126,"count":24,"max":[-1.5,0.375,0.4375],"min":[-1.5625,0.1875,0.1875],"type":"VEC3"},{"bufferView":45,"componentType":5126,"count":24,"max":[1,1,1],"min":[-1,-1,-1],"type":"VEC3"},{"bufferView":46,"componentType":5126,"count":24,"max":[0.8203125,0.8046875],"min":[0.515625,0.0390625],"type":"VEC2"},{"bufferView":47,"componentType":5123,"count":36,"max":[23],"min":[0],"type":"SCALAR"},{"bufferView":48,"componentType":5126,"count":24,"max":[-1.5,0.125,0.5],"min":[-1.5625,-0.0625,-0.5],"type":"VEC3"},{"bufferView":49,"componentType":5126,"count":24,"max":[1,1,1],"min":[-1,-1,-1],"type":"VEC3"},{"bufferView":50,"componentType":5126,"count":24,"max":[0.734375,0.8984375],"min":[0.1171875,0.2265625],"type":"VEC2"},{"bufferView":51,"componentType":5123,"count":36,"max":[23],"min":[0],"type":"SCALAR"},{"bufferView":52,"componentType":5126,"count":24,"max":[1.5625,0.5625,0.4375],"min":[1.5,0.3125,0.1875],"type":"VEC3"},{"bufferView":53,"componentType":5126,"count":24,"max":[1,1,1],"min":[-1,-1,-1],"type":"VEC3"},{"bufferView":54,"componentType":5126,"count":24,"max":[0.8125,0.84375],"min":[0.2578125,0.21875],"type":"VEC2"},{"bufferView":55,"componentType":5123,"count":36,"max":[23],"min":[0],"type":"SCALAR"},{"bufferView":56,"componentType":5126,"count":24,"max":[0.53125,0.625,-0.5],"min":[0.28125,0.5,-0.5625],"type":"VEC3"},{"bufferView":57,"componentType":5126,"count":24,"max":[1,1,1],"min":[-1,-1,-1],"type":"VEC3"},{"bufferView":58,"componentType":5126,"count":24,"max":[0.828125,0.8125],"min":[0.078125,0.0625],"type":"VEC2"},{"bufferView":59,"componentType":5123,"count":36,"max":[23],"min":[0],"type":"SCALAR"},{"bufferView":60,"componentType":5126,"count":35,"max":[1.4600147008895874,0.8125,-0.125],"min":[0.5399852991104126,0.5,-0.5625],"type":"VEC3"},{"bufferView":61,"componentType":5126,"count":35,"max":[0.9510565400123596,1,0],"min":[-0.9510565400123596,0,-1],"type":"VEC3"},{"bufferView":62,"componentType":5126,"count":35,"max":[0.6996003985404968,0.40625],"min":[0.0010921874782070518,0],"type":"VEC2"},{"bufferView":63,"componentType":5123,"count":45,"max":[34],"min":[0],"type":"SCALAR"},{"bufferView":64,"componentType":5126,"count":35,"max":[-0.5399852991104126,0.8125,-0.125],"min":[-1.4600147008895874,0.5,-0.5625],"type":"VEC3"},{"bufferView":65,"componentType":5126,"count":35,"max":[0.9510565400123596,1,0],"min":[-0.9510565400123596,0,-1],"type":"VEC3"},{"bufferView":66,"componentType":5126,"count":35,"max":[0.6058499813079834,0.6640625],"min":[0,0.1640625],"type":"VEC2"},{"bufferView":67,"componentType":5123,"count":45,"max":[34],"min":[0],"type":"SCALAR"},{"bufferView":68,"componentType":5126,"count":35,"max":[-0.5399852991104126,0.8125,-0.125],"min":[-1.4600147008895874,0.5,-0.5625],"type":"VEC3"},{"bufferView":69,"componentType":5126,"count":35,"max":[0.9510565400123596,1,0],"min":[-0.9510565400123596,0,-1],"type":"VEC3"},{"bufferView":70,"componentType":5126,"count":35,"max":[0.6917874813079834,0.6640625],"min":[0.14171718060970306,0],"type":"VEC2"},{"bufferView":71,"componentType":5123,"count":45,"max":[34],"min":[0],"type":"SCALAR"},{"bufferView":72,"componentType":5126,"count":35,"max":[1.4600147008895874,0.8125,-0.125],"min":[0.5399852991104126,0.5,-0.5625],"type":"VEC3"},{"bufferView":73,"componentType":5126,"count":35,"max":[0.9510565400123596,1,0],"min":[-0.9510565400123596,0,-1],"type":"VEC3"},{"bufferView":74,"componentType":5126,"count":35,"max":[0.6996003985404968,0.5859375],"min":[0.4375,0],"type":"VEC2"},{"bufferView":75,"componentType":5123,"count":45,"max":[34],"min":[0],"type":"SCALAR"},{"bufferView":76,"componentType":5126,"count":80,"max":[0.875,1.3125,0.3125],"min":[0.625,0.0625,0.0625],"type":"VEC3"},{"bufferView":77,"componentType":5126,"count":80,"max":[1,1,1],"min":[-1,-1,-1],"type":"VEC3"},{"bufferView":78,"componentType":5126,"count":80,"max":[0.8125,0.8125],"min":[0.140625,0.609375],"type":"VEC2"},{"bufferView":79,"componentType":5123,"count":96,"max":[79],"min":[0],"type":"SCALAR"},{"bufferView":80,"componentType":5126,"count":80,"max":[0.875,1.3125,-0.0625],"min":[0.625,0.0625,-0.3125],"type":"VEC3"},{"bufferView":81,"componentType":5126,"count":80,"max":[1,1,1],"min":[-1,-1,-1],"type":"VEC3"},{"bufferView":82,"componentType":5126,"count":80,"max":[0.8203125,0.8125],"min":[0.2578125,0.140625],"type":"VEC2"},{"bufferView":83,"componentType":5123,"count":96,"max":[79],"min":[0],"type":"SCALAR"},{"bufferView":84,"componentType":5126,"count":80,"max":[1.046875,1.3125,0.125],"min":[0.796875,0.0625,-0.125],"type":"VEC3"},{"bufferView":85,"componentType":5126,"count":80,"max":[1,1,1],"min":[-1,-1,-1],"type":"VEC3"},{"bufferView":86,"componentType":5126,"count":80,"max":[0.8203125,0.828125],"min":[0.5234375,0.2578125],"type":"VEC2"},{"bufferView":87,"componentType":5123,"count":96,"max":[79],"min":[0],"type":"SCALAR"},{"bufferView":88,"componentType":5126,"count":40,"max":[0.875,0.84375,-0.5],"min":[0.75,0.65625,-0.75],"type":"VEC3"},{"bufferView":89,"componentType":5126,"count":40,"max":[1,1,1],"min":[-1,-1,-1],"type":"VEC3"},{"bufferView":90,"componentType":5126,"count":40,"max":[0.8203125,0.828125],"min":[0.12798398733139038,0.046875],"type":"VEC2"},{"bufferView":91,"componentType":5123,"count":60,"max":[39],"min":[0],"type":"SCALAR"},{"bufferView":92,"componentType":5126,"count":40,"max":[0.875,0.84375,0.75],"min":[0.75,0.65625,0.5],"type":"VEC3"},{"bufferView":93,"componentType":5126,"count":40,"max":[1,1,1],"min":[-1,-1,-1],"type":"VEC3"},{"bufferView":94,"componentType":5126,"count":40,"max":[0.828125,0.828125],"min":[0.0029839843045920134,0.078125],"type":"VEC2"},{"bufferView":95,"componentType":5123,"count":60,"max":[39],"min":[0],"type":"SCALAR"},{"bufferView":96,"componentType":5126,"count":88,"max":[1.5,1.25,0.5],"min":[-1.5,0,-0.5],"type":"VEC3"},{"bufferView":97,"componentType":5126,"count":88,"max":[1,1,1],"min":[-1,-1,-1],"type":"VEC3"},{"bufferView":98,"componentType":5126,"count":88,"max":[0.5703125,0.6953125],"min":[0,0],"type":"VEC2"},{"bufferView":99,"componentType":5123,"count":132,"max":[87],"min":[0],"type":"SCALAR"}],"materials":[{"pbrMetallicRoughness":{"metallicFactor":0,"roughnessFactor":1,"baseColorTexture":{"index":0}},"alphaMode":"MASK","alphaCutoff":0.05,"doubleSided":true}],"textures":[{"sampler":0,"source":0,"name":"Truck.png"}],"samplers":[{"magFilter":9728,"minFilter":9728,"wrapS":33071,"wrapT":33071}],"images":[{"mimeType":"image/png","uri":"data:image/png;base64,"}],"meshes":[{"primitives":[{"mode":4,"attributes":{"POSITION":0,"NORMAL":1,"TEXCOORD_0":2},"indices":3,"material":0}]},{"primitives":[{"mode":4,"attributes":{"POSITION":4,"NORMAL":5,"TEXCOORD_0":6},"indices":7,"material":0}]},{"primitives":[{"mode":4,"attributes":{"POSITION":8,"NORMAL":9,"TEXCOORD_0":10},"indices":11,"material":0}]},{"primitives":[{"mode":4,"attributes":{"POSITION":12,"NORMAL":13,"TEXCOORD_0":14},"indices":15,"material":0}]},{"primitives":[{"mode":4,"attributes":{"POSITION":16,"NORMAL":17,"TEXCOORD_0":18},"indices":19,"material":0}]},{"primitives":[{"mode":4,"attributes":{"POSITION":20,"NORMAL":21,"TEXCOORD_0":22},"indices":23,"material":0}]},{"primitives":[{"mode":4,"attributes":{"POSITION":24,"NORMAL":25,"TEXCOORD_0":26},"indices":27,"material":0}]},{"primitives":[{"mode":4,"attributes":{"POSITION":28,"NORMAL":29,"TEXCOORD_0":30},"indices":31,"material":0}]},{"primitives":[{"mode":4,"attributes":{"POSITION":32,"NORMAL":33,"TEXCOORD_0":34},"indices":35,"material":0}]},{"primitives":[{"mode":4,"attributes":{"POSITION":36,"NORMAL":37,"TEXCOORD_0":38},"indices":39,"material":0}]},{"primitives":[{"mode":4,"attributes":{"POSITION":40,"NORMAL":41,"TEXCOORD_0":42},"indices":43,"material":0}]},{"primitives":[{"mode":4,"attributes":{"POSITION":44,"NORMAL":45,"TEXCOORD_0":46},"indices":47,"material":0}]},{"primitives":[{"mode":4,"attributes":{"POSITION":48,"NORMAL":49,"TEXCOORD_0":50},"indices":51,"material":0}]},{"primitives":[{"mode":4,"attributes":{"POSITION":52,"NORMAL":53,"TEXCOORD_0":54},"indices":55,"material":0}]},{"primitives":[{"mode":4,"attributes":{"POSITION":56,"NORMAL":57,"TEXCOORD_0":58},"indices":59,"material":0}]},{"primitives":[{"mode":4,"attributes":{"POSITION":60,"NORMAL":61,"TEXCOORD_0":62},"indices":63,"material":0}]},{"primitives":[{"mode":4,"attributes":{"POSITION":64,"NORMAL":65,"TEXCOORD_0":66},"indices":67,"material":0}]},{"primitives":[{"mode":4,"attributes":{"POSITION":68,"NORMAL":69,"TEXCOORD_0":70},"indices":71,"material":0}]},{"primitives":[{"mode":4,"attributes":{"POSITION":72,"NORMAL":73,"TEXCOORD_0":74},"indices":75,"material":0}]},{"primitives":[{"mode":4,"attributes":{"POSITION":76,"NORMAL":77,"TEXCOORD_0":78},"indices":79,"material":0}]},{"primitives":[{"mode":4,"attributes":{"POSITION":80,"NORMAL":81,"TEXCOORD_0":82},"indices":83,"material":0}]},{"primitives":[{"mode":4,"attributes":{"POSITION":84,"NORMAL":85,"TEXCOORD_0":86},"indices":87,"material":0}]},{"primitives":[{"mode":4,"attributes":{"POSITION":88,"NORMAL":89,"TEXCOORD_0":90},"indices":91,"material":0}]},{"primitives":[{"mode":4,"attributes":{"POSITION":92,"NORMAL":93,"TEXCOORD_0":94},"indices":95,"material":0}]},{"primitives":[{"mode":4,"attributes":{"POSITION":96,"NORMAL":97,"TEXCOORD_0":98},"indices":99,"material":0}]}]}